<?xml version="1.0" encoding="UTF-8"?>
<svg id="Ebene_1" data-name="Ebene 1" xmlns="http://www.w3.org/2000/svg" viewBox="0 0 244.76 105.26">
  <defs>
    <style>
      .cls-1 {
        fill: #d70029;
      }

      .cls-2 {
        fill: #181716;
      }

      .cls-3 {
        fill: none;
        stroke: #181716;
        stroke-width: .53px;
      }
    </style>
  </defs>
  <g>
    <path class="cls-3" d="m236.77,17.17C229.88,6.97,218.22.26,204.99.26c-16.64,0-30.8,10.62-36.08,25.44"/>
    <path class="cls-3" d="m219.41,74.06c14.01-5.7,23.89-19.43,23.89-35.49,0-3.42-.46-6.74-1.3-9.9"/>
    <path class="cls-3" d="m166.71,37.51c0,.35-.03.7-.03,1.06,0,11.74,5.28,22.23,13.6,29.26"/>
  </g>
  <rect class="cls-1" x="226.18" y="58.31" width="2.39" height="46.95"/>
  <g>
    <path class="cls-2" d="m217.32,60.1s-.31.41-.84.41-.98-.11-1.6-.89c-.62-.78-1.16-1.49-1.39-1.58,0,0,.03-.27-.02-.45,0,0,.42.14.72.1,0,0-.45-.58-.59-.93-.14-.35-.47-.74-.47-.74,0,0,.51.04,1.4,1.18.89,1.14,1.08,1.46,1.37,1.83.29.38.79.94,1.42,1.09m-3.85-1.89s.35.28.59.72c.24.44.32.77.62,1.18.3.42.74.73.74.73,0,0-.15.11-.47.11-.33,0-.52-.08-.52-.08,0,0-.16-.46-.51-.73-.35-.27-.86-.66-1.52-.86,0,0,.25-.43.32-.65,0,0,.51.21.7.37,0,0,.21-.2.06-.8m-.38,1.72c.43.29.74.66.82.86.07.2,0,.32-.11.42-.11.1-.25.23-.38-.03-.13-.25-.19-.3-.31-.21l-.19-.29-.09.26s-.09-.28-.19-.39c-.09-.11-.2-.01-.2-.01,0,0-.17-.27-.36-.38,0,0,.13.61.12.9-.01.29-.17.31-.29.31-.12,0-.16.11-.25.09s-.31-.07-.38-.26c-.07-.19-.11-.33-.06-.41.05-.09.02-.52-.14-.51-.16.02-.1.17-.17.27,0,0-.14-.24-.24-.2s-.04.29-.11.43c0,0-.17-.23-.26-.24-.08-.02-.04.16-.06.27-.02.11-.06.14-.22-.03-.07.03,0,.32-.06.4-.06.08-.24.29-.39.3-.15,0-.64-.25-.35-.58.29-.33,1.2-1.24,1.87-1.38,0,0,.25-.68.17-.87,0,0,.58.01.68.86,0,0,.73.16,1.16.45m-2.53-.57s-.87.46-1.41,1.03c0,0-.32-.33-.58-.53,0,0-.06-.46-.19-.86,0,0,.22-.02.27.04,0,0,.16-.75-.22-1.98,0,0,.12-.45-.14-1.03,0,0,.35.21.44.35,0,0,.11-.61-.22-1.51,0,0,.89.43,1.16.87.27.45.27.85.21,1.13,0,0,.32.24.34.46.02.22-.02.62-.08.99s-.01.79.44,1.03m-2.03,1.41c0,.24-.1.34-.24.33-.15-.01-.44-.16-.51-.32-.07-.16-.12-.33-.31-.25,0,0-.12-.27-.35-.15,0,0-.14-.26-.29-.1,0,.07.09.18.02.33-.07.14-.04.18-.07.28-.03.1-.04.29-.4.26-.35-.03-.51-.16-.5-.37,0-.21.15-.37.11-.63-.05,0-.18.11-.33.06-.06.02-.07.25-.18.36,0,0-.18-.19-.25-.15-.07.04-.11.32-.36.26-.11.04-.2.41-.38.45-.18.04-.35-.16-.34-.3,0-.13.47-.93,2.28-1.41,0,0-.04-.48.21-.51.17-.02.49.17.51.37.02.2-.07.33.08.36.16.03.32.12.68.37.35.25.63.52.63.75m13.21-4.32s.71-.22.87-.37c0,0-.27-.34-.37-.56-.1-.22-.86-.99-1.87-1.43-.34-.15-.82-.3-1.34-.47l-1.38.16c.5.2,1.02.41,1.47.57,1.54.56,2.59,1.39,2.9,1.48,0,0-.35.56-1.71.38-1.36-.18-2.06-.69-2.67-1.17-.34-.27-1.03-.71-1.62-1.07l-.48.05c.37.31.89.74,1.46,1.18,1.04.81,1.49,1.25,2.32,1.43.83.19,1.67.07,1.67.07,0,0-.38.99-1.46,1.07-1.08.07-1.98-.41-2.95-1.17l-1.96-1.52s.38-.12.56-.21c.05,0,.47-.02.49-.13.02-.11-.22-.09-.36-.27-.05-.06-.16-.21-.28-.39l-.5.07c.09.1.16.2.21.3,0,0-.42.43-1.37-.07-.05-.03-.09-.05-.14-.08l-.83.1c.33.35.97.82,1.97.74l2.38,2.14c.96.86,2.56,1.16,2.64,1.16,0,0-.36.97-1.22,1.05-.86.08-1.47-.24-2.05-.98-.57-.74-1.04-1.28-1.87-2.08-.83-.8-1.41-1.28-1.72-1.68-.1-.13-.17-.24-.23-.35l-.42.05c.14.3.27.55.35.67,0,0-.51-.19-.57-.23-.06-.04.19.38.69.85.5.47.64.95.64.95,0,0-.56-.42-.81-.4.11.09.8,1.09.75,1.76,0,0-.56-.32-1.05-.79,0,0,.18.66.06,1.12,0,0-.58-.18-.83-.88,0,0-.26.85-.24,1.18,0,0-.26-.21-.21-.68.05-.46.11-.56.06-.8-.05-.25-.42-.64-.42-.64,0,0,.16-.39.04-.77-.09-.3-.29-.7-.84-1.07l-1.43.17c.03.09.06.18.09.27,0,0-.11-.1-.29-.26l-.24.03c.14.32.34.82.39,1.19,0,0-.27-.3-.64-.5,0,0,.46,1.1.57,2.08,0,0-.28-.28-.55-.47,0,0,.35,1.31.43,1.82,0,0-.52-.78-.84-.84-.32-.06-.32.05-.48.06-.16.02-.41-.3-.5-.29-.09,0-.1.31-.09.42,0,0-.31-.43-.15-1.24,0,0,.53.44.66.68,0,0,.06-.42-.22-.94-.29-.52-.42-1.09-.34-1.51,0,0,.27.15.63.06,0,0-.18-.12-.39-.35l-1.13.13c0,.36.07.86.39,1.37,0,0-.8,2.15.58,2.74,0,0-.64.14-1.07.38-.44.25-1.17.9-.98,1.34,0,0-.31.3-.25.68.07.38.17.49.41.54,0,0-.04-.22,0-.34.03-.12.15-.14.2-.22.05-.08.03-.18.2-.21.17-.03.34-.01.46-.06.11-.05.47-.25.61-.39,0,0,.16.18.28.28.13.1.25.2.28.38.04.17.1.65.18.79,0,0,.11-.15.24-.43.12-.28.25-.52.25-.52,0,0,.22-.05.58-.32,0,0,.07.08.21.12.14.04.19-.02.29.11.1.13.16.21.19.38.04.16.13.27.06.46-.06.18-.14.28-.14.28,0,0,.2-.06.3-.2.09-.14.22-.24.28-.53.06-.29.27-.4.35-.3.08.1.17.22.44.33,0,0,.53.88,1.08.63,0,0-.36-.25-.38-.47,0,0,.24-.17.33-.28,0,0,.23.11.5.12.27.01.47-.04.47-.04,0,0,.11.61.22.79,0,0,.32-.36.49-.84,0,0,.44-.15.59-.36,0,0,.19.19.47.27.28.08.41.02.41.02,0,0,.19.09.15.3-.04.21-.17.48-.17.48,0,0,.35-.07.45-.22.1-.15.28-.55.3-.83,0,0,.62.22.99.13.37-.08.57-.32.63-.43,0,0,.65.11,1.13-.08.48-.18.75-.41.98-.87,0,0,1.87-.15,1.94-1.71,0,0,2.09-.86,1.91-2.05"/>
    <path class="cls-2" d="m204.83,45.24s.51.56.63.87.54,1.59.54,1.59c0,0-.5-.72-.64-1.12-.14-.4-.18-.65-.32-.89s-.21-.45-.21-.45m3.8.52s.55.36.73.97c.18.6.29,1.22.3,1.42,0,.21-.08.11-.23-.08-.15-.19-.68-.59-.9-.93-.23-.35-.76-.84-.9-1.01.19.01,1.19.66,1.41.95,0,0,.06-.58-.41-1.31m1.2.6c.1.14.54.76.85,2.43s.6,2.08,1.2,3.15c.6,1.07.8,1.48,1.11,1.75.3.27.09.23-.07.12-.16-.11-1.32-1.32-2.01-2.79-.92-1.97-.82-3.34-.95-3.81-.13-.47-.18-.62-.27-.74-.09-.12.04-.25.14-.1m1.7,3.45c.17-.09.39.36.48.6.09.24.26.68.21.7-.06.03-.36-.25-.56-.59-.2-.34-.3-.62-.13-.71m-1.11,1.4c.07-.05.26.04.3.18.04.13.1.32.26.53.16.21.16.41.11.44-.05.03-.29-.1-.4-.29-.12-.19-.16-.42-.19-.57-.04-.15-.15-.24-.08-.29m-8.42-3.76s.18.25.54.65c.35.4.59.73.95,1.38.36.65.43,1.11.43,1.11,0,0-.42-.4-.57-.66,0,0-1.02-.08-1.7-1.14,0,0,.04-.03.48.24s.8.37.8.37c0,0-.46-1.05-.75-1.52-.29-.47-.19-.44-.19-.44m13.55,6.57c-.31-.26-.52-.44-.56-.47-.08-.07-.21-.21.07-.11.12.04.51.26.97.54l-.48.05Zm-3.66.42c-.31-.66-.67-1.52-.7-1.59-.04-.1-.05-.23.03-.14.08.09,1.1,1.05,2.01,1.58l-.83.09c-.19-.19-.27-.35-.27-.35,0,0,.04.15.17.37l-.42.04Zm-3.81.43c-.39-1.02-1.2-1.62-1.61-1.87-.44-.27-.76-.68-1.24-1.08s-.79-.87-.79-.87c0,0,.5.26,1.08.73.58.46,1.07.67,1.07.67,0,0-.26-.67-.44-1.04-.18-.37-.23-.7-.27-.85l-.11-.4s.29.1.56.73c.27.62,1.67,3.01,2.65,3.49.21.1.4.21.55.32l-1.43.17Zm-.44.05c-.08-.18-.14-.3-.14-.3.14.1.27.2.38.28l-.24.02Zm10.12-12.33c-.02.28-.1.75-.47.93,0,0,.07.91-.83,1.35,0,0,.03.94-1.11,1.11,0,0-.19.7-.84.79,0,0-.13.68-1.24.77,0,0-.3.81-1.2.26v-.1c.13.05.57,0,.67-.12.11-.11-.52-.44-.82-.65-.3-.21-.15-.19.03-.11.19.09.78.55,1.32.47.54-.08.72-.2.75-.4.03-.2-.33-.15-1.17-.58-.65-.34-.77-.39-.86-.47-.26-.25-.25-.3-.01-.17.23.13.84.45,1.5.65.66.2.86.36,1.16.09.3-.27.36-.36.35-.46,0-.1-.01.05-.45-.07-.44-.12-1.33-.55-1.47-.7.22-.04,1.14.41,1.68.43.55.02.81-.03,1.06-.22.25-.19.32-.37.22-.45-.1-.08-.33.08-.69-.14-.36-.22-.93-.46-1.14-.59-.2-.13-.23-.24,0-.15.23.1.79.34,1.29.47.5.13.71.15,1.09-.24.38-.39.34-.45.27-.56-.07-.11-.32.18-.74.06-.41-.12-1.08-.3-1.26-.43s-.11-.18.05-.12c.15.06.92.38,1.38.33.45-.06.88-.28.99-.61.05-.16.08-.26.07-.31l.41-.06Zm-6.1.7c-.9,1.04-2.52.38-2.52.38,0,0,1.22,1.44,1.99,2.68.77,1.24,1.19,2.53,1.19,2.53,0,0,.1.11.35.14.25.04.27-.23.18-.4-.09-.17.13-.01.5.26.37.28.79.1.87-.05.07-.16-.31-.59-.49-.77-.18-.18-.11-.23.08-.1.19.13.8.65,1.21.83.4.18.65.04.95.01.29-.03.18-.12-.04-.23-.22-.11-1.02-1.03-1.19-1.17-.18-.15-.13-.23.13-.07.25.15,1.31.95,1.73,1.05.42.09.99,0,.98-.08,0-.09-.31-.19-.66-.42-.35-.23-1-.97-1.08-1.08-.08-.11-.09-.18.04-.09.13.09.68.47,1.38.82.7.35.92.5,1.27.47.35-.03.64-.3.63-.42-.01-.12-.33-.22-.77-.43-.43-.21-1.2-.98-1.37-1.18-.17-.21.04-.15.94.37.89.52,1.79.79,2.16.73.36-.07.67-.46.62-.58s-.52-.22-1.1-.52c-.58-.3-1.25-.96-1.5-1.11-.25-.15-.17-.21.09-.11.26.09,1.65.83,2.46,1.15.82.32,1.06-.06,1.25-.21.19-.15.08-.27-.09-.32-.17-.04-.57-.12-1.29-.51-.72-.39-1.72-1.23-1.8-1.28-.08-.05-.1-.26.06-.12.16.13,1.6.78,2.76,1.29s1.27.07,1.54-.27c.28-.34.09-.56-.22-.62-.32-.06-1.04-.37-1.61-.69-.37-.2-.96-.57-1.37-.81l.39-.05c.28.11.65.27,1.14.49,1.32.6,1.84.64,2.32.53.48-.11.55-.62.62-.79.07-.17-.18-.13-.44-.15-.2-.01-.61-.14-1.15-.38l1.29-.14c.07.01.14.01.18,0,.04,0,.07-.02.11-.03l1.09-.13c-.23.29-.46.48-.46.48-.05,1.23-1.13,1.73-1.13,1.73-.16,1.37-1.21,1.55-1.21,1.55-.12.85-1.32,1.11-1.32,1.11-.42,1.04-1.48,1.02-1.48,1.02-.22.98-1.76.96-1.76.96-.2.41-1.33.39-1.33.39-.5.61-1.96.39-1.96.39-.33.27-1.33.21-1.33.21-.25.14-.78.03-.78.03.08.23.62,1.14,1.3,1.83.68.68,1.39.82,2.22,1.26.55.29,1.75.63,2.79.96l-1.38.16c-1.22-.49-2.36-1-2.36-1,0,0,.22.3.14.34-.07.05-.54-.02-.8-.01-.26,0-.22.09-.22.09.1.14.39.55.61.88l-.5.05c-.44-.52-1.25-1.14-1.42-1.27-.21-.16-.78-.29-.77-.43.02-.13.66.07.71-.02.05-.09-.29-.42-.4-.61-.11-.2-.13-.4.1-.16.23.24.63.4,1.21.77.58.37.34-.05.07-.3-.26-.26-1.49-1.37-1.99-2.37-.5-1-1.36-2.92-2.19-4.17-.42-.63-.93-1.31-1.4-1.91l3.19-.37Zm-23.97,2.73c.22.22.54.42.71.49.16.07.79-.33,1.35-.73l.3-.03c-.55.44-1.23.99-1.28,1.13-.08.23.34.87.81.91.48.04,1.85-1.23,2.01-1.39.16-.16.24-.14.12.02-.12.16-1.52,1.39-1.55,1.61-.02.22-.02.45.63.59s1.76-1.21,1.85-1.38c.09-.17.19-.3.09.04-.1.34-1.5,1.45-1.52,1.72-.02.27.31.59.8.63.49.04,1.58-1.28,1.7-1.44.12-.16.2-.23.09.04-.11.26-1.3,1.43-1.3,1.69,0,.27.04.23.58.61.54.38,1.82-1.66,1.91-1.86.06.31-1.2,1.82-1.23,2.1-.03.28.59.56,1.01.51.42-.06,1.05-1.6,1.16-1.81.11-.22.25-.32.12.03-.13.35-.8,1.85-.74,2,.06.14.36.35.76.19.4-.16,1.04-1.63,1.11-1.81.07-.18.14-.23.12.06-.02.3-.66,1.6-.59,1.83.07.23.48.26,1.01.04s.86-1.64.86-1.64c0,0,.21-.45.17.07-.05.62-.56,1.15-.44,1.48.12.33.93.15,1.17-.1.24-.24.39-.99.43-1.18.04-.2.14-.35.16,0,.02.35-.38,1-.29,1.14.26.41.59.11.82-.11.23-.21.32-.79.32-.79.25.29.05.71.11.8.05.1.6.19.82-.08.22-.27-.11-.88-.11-.88l-1.04-.67c-.88.5-1.41-.29-1.41-.29-1.14.2-1.45-.59-1.45-.59-1.16.36-1.42-.77-1.42-.77-1.4.52-1.64-.91-1.64-.91-1.19.44-1.43-1.03-1.43-1.03-.73.09-1.01-.39-1.12-.79l.47-.05c.07.14.21.25.46.29.28.05.51-.19.68-.42l.31-.04c-.19.34-.44.84-.42,1.04.03.26.32.4.73.51.41.11,1.02-.93,1.13-1.06.11-.13.23-.02.14.09s-.06.14-.29.49c-.23.35-.35.54-.33.86.02.32.58.61,1.01.64.43.03.81-.94.93-1.14s.22-.15.17.04c-.06.2-.36.7-.43,1.11-.07.41.56.72.89.67.34-.05.54-.56.6-.68-.2.8,0,.87.36,1.16s.68.04.76-.04c.06.75.87.57.87.57-1.63-1.22-2.66-3.3-3.18-4.6l.75-.08c.74,1.6,1.72,3.04,2.12,3.48.6.65,2.47,2.09,2.98,2.47s.56.63.56.63c-.24-.21-.91-.38-.91-.38.54,1.34,2.5,2.16,3.23,2.63.73.48.97,1.02.97,1.02-.65-.56-1.25-.49-1.25-.49.13.38.35.68.53.88l-1.13.13c0-.33.07-.54.07-.54-.37-.32-.58-.92-.58-.92-1.31-.67-2.14-1.98-2.14-1.98,0,0-.44.16-.79.25-.35.09-.71-.11-.71-.11,0,0-.44.22-.76.28-.32.06-.55-.07-.55-.07,0,0-.53.21-.85.23-.32.02-.6-.12-.6-.12,0,0-.61.3-1.04.23-.44-.06-.71-.32-.71-.32,0,0-.47.09-.91-.05-.44-.13-.74-.42-.74-.42,0,0-.38.05-.77-.12-.39-.17-.68-.57-.68-.57,0,0-.48-.03-.79-.25-.32-.22-.46-.59-.46-.59,0,0-.54-.08-.89-.34-.35-.26-.38-.76-.38-.76,0,0-.42-.06-.79-.34-.37-.28-.47-.62-.47-.62,0,0-.49.02-.92-.47-.22-.25-.34-.78-.34-.78-.18-.07-.62-.28-.94-.65-.03-.04-.06-.08-.09-.12l.54-.06Z"/>
    <path class="cls-2" d="m222.24,41.25c-.62-.34-1.91-.74-2.08-.69.12.05,1.21.73,2.03,1.15.22.11.43.21.62.3l1.29-.14c-.45-.04-1.32-.33-1.86-.62m-2.72.85s.19.11.41.24l.39-.05c-.47-.18-.69-.23-.8-.19m-3.89.05c.26.11,1.1.54,1.44.47.18-.04.26-.04.28.01l.41-.04c0-.12,0-.2,0-.2.44-.37.38-1.03.38-1.03.49-.33.45-1.27.45-1.27.66-.48.35-1.17.35-1.17.72-.57.4-1.4.4-1.4.59-.78.21-1.35.21-1.35.43-.41.25-1.08.25-1.08.72-.54.36-1.46.36-1.46.71-.47.54-1.3.54-1.3.47-.22.39-.88.39-.88.58-.25.77-1.07.77-1.07,1.23-.28,1.52-1.63,1.52-1.63.76-.3.8-.95.8-.95.94-.4.69-1.44.69-1.44.69-.84-.14-1.79-.14-1.79.03-.27-.16-.53-.39-.81s-.97-.13-1.29-.02c-.32.1-.28.18-.07.17.21,0,.27.03.7.02.43-.01.33,0,.48.21.15.21.16.43,0,.61-.16.18-.54.26-.73.26-.19,0-.26.11-.06.17.2.06.28.02.64-.08.36-.09.52,0,.7.33.18.34-.1.79-.39,1-.29.21-1.3.2-1.46.19-.16-.01-.29.07-.03.12s.72.08,1.07.06c.35-.02.46-.12.58,0s-.38.55-.64.7c-.27.14-1.06.18-1.28.14-.21-.04-.26.04-.04.15.22.11.12.06.47.07.34.01.49-.12.67,0,.17.12-.26.42-.7.76-.44.34-1.24.24-1.42.2s-.26.06-.05.14c.22.08.28.09.63.12.36.02.64-.08.69.11.05.19-.71.79-1.03.94-.33.15-.99.02-1.23.01-.24,0-.25.05-.05.12.2.07.62.13.75.27.13.14-.04.48-.43.72-.39.24-.8.18-.97.26.17.03.15.04.41.08.26.03.4-.13.43.02.03.15-.24.57-.38.66-.14.09-.59.19-.77.13-.18-.06-.26.1-.03.12.22.02.29.05.59-.01.31-.06.28.02.14.49-.15.47-1.07.61-1.26.64s-.24.08-.03.11c.21.02.43.12.65.1.22-.02.19-.02.26.23.07.24-.37.76-.67.89-.3.13-.82.21-1.02.28.17.06.43.03.82.05.39.02.43-.1.5.01.07.11-.07.35-.27.63-.19.29-.65.45-.91.58.12.05.15-.01.32-.02.18,0,.45-.12.59-.01s-.05.42-.29.84c-.24.42-.97.35-1.32.47.13.08.19.01.41.07.21.05.77,0,.93-.07.16-.07.18.03.15.36-.03.33-.3.56-.62.74-.32.18-1.02.14-1.28.12-.25-.02-.26.1-.05.11.21,0,.57.11.94.09.37-.02.49-.18.6-.06.12.12.03.34-.18.64-.21.3-.47.33-.78.39-.31.06-.73-.09-.99-.16-.26-.06-.19,0-.04.09.16.09.67.19,1,.24.33.06.45-.1.49,0,.04.1.04.23-.16.55-.19.32-.32.36-.72.35-.4,0-.87-.14-1.06-.22-.19-.08-.26.06-.04.15.22.1,1.13.34,1.42.34.3,0,.15.13.04.47-.1.34-.58.4-.94.37-.36-.02-.87-.26-1.04-.33-.17-.07-.33.02-.06.12m1.16-13.35c.13-.05.38.07.35.32-.04.25-.02.5-.45.84-.43.34-.48.27-.65.58.15-.01.31.1.22.36-.08.26-.16.68-.52.87-.36.19-.58.23-.77.24-.19,0-.11.17,0,.19.12.02.25.15.09.44-.16.29-.51.57-.56.76.11-.04.2.07.07.34-.12.27-.69.92-.89,1.02-.2.11-.18.18,0,.15.18-.04.31-.04.25.2-.07.24-.18.87-.68.96-.49.1-.62.13-.83.13s-.3.13-.05.14c.26.01.48-.02.54.07.06.08-.04.47-.29.65-.25.18-.81.46-1.07.49s-.23.13-.02.13c.22,0,.41,0,.42.09,0,.09-.06.44-.32.66-.29.25-.52.42-.89.45-.37.04-.63.11-.38.16s.48.02.5.1c.03.08.1.37-.47.62-.58.24-1.14.45-1.4.41-.26-.03-.29.1-.13.15.15.06.46.07.45.15-.01.09-.34.41-.8.56-.47.15-1.71-.11-1.92-.27-.21-.16-.18-.04-.1.18m0,0c.08.22.41.73.85,1.3.22.28.64.8,1.11,1.39l3.19-.36s.05-.06.07-.09c0,0,.9.12,1.25-1.04,0,0,.75-.21,1.01-1,0,0,.75-.37.78-1.29,0,0,.56-.5.47-1.1,0,0,.76-.67.52-1.34,0,0,.56-.62.37-1.03,0,0,.65-.51.6-1.46,0,0,.44-.5.47-1.14,0,0,.72-.87.41-1.9,0,0,.94-.68.89-1.54,0,0,.75-.52.67-1.22,0,0,1.08-.59.89-1.48,0,0,1.48-.62.85-1.61,0,0,1.45-.97-.19-1.36.11.09.46.46.32.72-.14.26-.51.55-.94.56-.43.01-.28.2-.1.2.18,0,.43-.03.51.03.08.05.27.34.1.6-.17.25-1.11.73-1.32.9.16-.02.4,0,.37.28-.03.28-.14.56-.54.72-.4.16-.39.11-.57.25.18.04.51.28.14.72-.37.44-.37.47-.68.58-.32.11-.38.13-.46.19.11,0,.32.13.56.06,0,0,.24.08-.06.53-.3.44-.67.64-1.01.68-.34.04-.41.01-.22.08.19.07.5.12.52.43.02.31-.02.9-.21,1.13-.19.22-.19.31-.49.46-.3.15-.49.17-.62.18.16.06.5.15.6.11.1-.04.02.24-.11.42-.13.17-.37.43-.58.44-.21,0-.33,0-.42.01.12.07.36.28.76.16,0,0,.15.05,0,.45-.16.4-.27.69-.49.71-.22.02-.66-.07-.83-.05.13.09.69.31.82.3.13-.01.08.12.01.24-.07.13-.21.53-.42.6-.2.07-.16.12-.53.04-.37-.08-.39-.08-.48-.05.11.09.23.25.56.28.33.03.57-.02.47.22-.1.24-.3.69-.66.76-.36.07-.71-.03-.85-.12-.14-.1-.19-.03-.03.09.16.12.68.41.83.39.15-.01.18.05.07.27-.12.22-.28.49-.59.55-.31.06-.69,0-.83,0,.12.06.7.29.87.27.17-.02.17.15.06.25-.11.1-.39.55-.81.56-.41,0-.83-.31-1.04-.28.11.06.82.44.97.49.14.05.15.13.04.24-.11.11-.54.45-.81.44-.27,0-1.14-.39-1.3-.55-.15-.15-.14-.03-.03.09.11.12.75.61.95.69.2.08.33.09.16.34-.17.25-.46.51-.98.41-.51-.1-1.15-.55-1.41-.6.09.1.4.43.72.61.32.19.54.21.55.31,0,.1-.3.29-.7.3-.4,0-1.05-.02-1.74-.51-.69-.5-.93-.65-1.54-1.45,0,0,.86.36,1.52.03.66-.33.9-.97.9-.97,0,0,1.6-.39,1.53-1.4,0,0,1.14-.58,1.12-1.4,0,0,.96-.41,1.11-1.35,0,0,1-.52.72-1.53,0,0,.92-.51.79-1.5,0,0,.52-.61.41-1.07,0,0,1.38-.48,1.16-1.75,0,0,1.24-.79.73-1.85m-2.66,1.01s-1.32,2.45-2.92,4.54c-1.6,2.09-3.99,4.07-3.99,4.07,0,0,1.84-.92,4.14-3.54,2.07-2.35,2.77-5.08,2.77-5.08m-10.74,10.06c.6,1.18,1.33,1.63,1.33,1.63-.4-1.1-1.33-1.63-1.33-1.63m-9.81,5.27c-.06.08-.14.2-.23.31l.31-.03c.06-.11.12-.2.15-.25.14-.21-.06-.28-.24-.04m-2.97-1.17s.02,1.27,1.06,1.19c0,0,0,.22.07.48l.47-.05c-.05-.09-.06-.2-.06-.31.02-.27.35-.85.52-1.01.18-.17.05-.26-.09-.14-.14.12-.27.44-.78.49-.51.05-.75-.39-.72-.69.03-.3.2-.69.36-.85.16-.16.08-.22-.1-.07-.18.15-.43.62-.79.54-.36-.08-.71-.45-.62-.77.09-.32.27-.69.44-.83.17-.13.1-.22-.1-.08s-.41.47-.69.35c-.28-.12-.7-.39-.59-.76.11-.37.16-.5.4-.72.25-.22.16-.33-.07-.21-.23.11-.33.46-.64.4-.32-.06-.8-.35-.55-.79.25-.44.22-.58.36-.7.14-.12.07-.17-.09-.07-.17.1-.42.41-.73.28-.31-.13-.74-.34-.69-.69.06-.35.31-.5.47-.65.16-.15.07-.19-.08-.08-.15.1-.38.47-.8.31-.41-.15-.68-.29-.59-.64.08-.35.31-.62.51-.72.2-.09.12-.15-.05-.08-.17.06-.37.44-.77.34-.39-.09-.94-.25-.91-.71.03-.46.34-.45.65-.58.31-.13.17-.21-.06-.11-.23.1-.66.39-.99.33-.33-.06-.84-.53-.7-.67.13-.15.54-.33.7-.44.15-.1.1-.19-.07-.08-.17.1-.43.26-.94.21-.51-.06-.7-.16-.68-.42.02-.27.24-.44.41-.54.17-.11.12-.25-.08-.1s-.53.47-1.01.38c-.48-.09-.7-.21-.64-.53s.29-.4.44-.5c.15-.1.05-.12-.08-.1-.13.03-.59.37-.88.23-.29-.13-.6-.22-.49-.48.11-.26.39-.41.6-.55.21-.14.2-.18-.05-.08-.26.1-.69.39-1.08.34-.39-.05-1.03-.36-.73-.77.3-.41.54-.39.74-.46.2-.06.22-.16-.03-.12-.25.04-.66.24-1.03.07-.37-.17-.58-.63-.34-.9.24-.28.45-.27.71-.29.26-.03.18-.15-.06-.13-.23.02-.56.17-.92-.04s-.62-.74-.31-1.08c.31-.34.52-.26.79-.3.26-.04.21-.15-.01-.13-.22.02-.54.1-.61-.21-.07-.3-.13-.62.23-.88.36-.26.01-.19-.19-.09s-.77.47-.42,1.19c0,0-.9,1,.36,1.79,0,0-.46.93.76,1.44,0,0-.65,1.05,1.13,1.28,0,0,.16.75,1.12.75,0,0-.13,1.06,1.26.83,0,0,.18.77,1.01.78,0,0-.07.78,1.09,1.01,0,0,.03,1.05,1.27,1.08,0,0-.25.94,1.05,1.04,0,0-.05,1.14,1.04,1.14,0,0-.39,1.3.97,1.31,0,0-.28,1.23.81,1.3,0,0,.03,1.33,1.09,1.33m-.47,1.25c-.06.06-.46.38-.91.7l.3-.04c.35-.29.66-.53.72-.61.14-.19.03-.19-.11-.06m10.3-11.1c-.72.54-1.44.84-1.44.84-.08-1,.93-1.68,1.25-1.94.32-.27.73-.53.71-.59-.02-.06-.77.42-.77.42.16-.5.18-1.22.18-1.22,0,0,.67-.32,1.18-.36.51-.05,1.04.4,1.08.8.04.4-.1.69-.1.69-.54-.48-.81-.31-1.45-.02-.64.28-1.3,1.1-1.53,1.38-.23.27-.11.38-.11.38.21-.11,1.7-1.26,1.98-1.45.28-.19.37-.27.37-.27-.08.44-.63.82-1.35,1.36m-.93-1.63s.07.47-.39.69c0,0,.18-.3.06-.6,0,0,.15-.12.33-.09m-.75.8c-.45.13-.64-.22-.64-.22l.2-.12c.12.17.45.34.45.34m45.48-10.26c-.09-.29-.59-.36-1.36-.35l-.47.02h0c-.19.01-.42.03-.61.05h0c-1.34.12-3.38.37-4.19.53,0,0,1.2-.9,2.01-1.43.38-.24.96-.52,1.46-.78,0,0,0,0,0,0,.26-.14.47-.25.8-.48.15-.12.25-.23.23-.33-.02-.11-.13-.18-.28-.23-.08-.02-.16-.04-.23-.05-.04,0-.08,0-.12-.01-.05,0-.11,0-.16-.01-.04,0-.07,0-.11,0,0,0,0,0,0,0-.22,0-.47.02-.75.05-.15.02-.29.03-.42.05-.79.13-4.4.94-5.75,1.41,0,0,.48-.59,1.1-1.01.62-.42,3.07-1.39,2.88-1.99-.2-.6-2.98.2-4.17.59-1.19.39-3.41,1.2-3.41,1.2,0,0,1.55-1.39,1.43-1.64-.12-.24-2.3.3-3.93.89-1.63.59-6.96,2.57-13.05,5.24-.44.19-.65.61-.82,1.01-.17.4-1.3,3.4-2.2,5.08-.9,1.69-2.41,3.55-4.53,5.19-2.12,1.64-3.31,2.2-3.62,2.23-.31.03-1.38-.77-2.21-1.7-.83-.93-1.11-1.2-1.25-1.88,0,0,1.16-.66,1.61-1.59,0,0,.33-.06.33.68,0,0,.61-.41.49-1.68-.12-1.26-1.62-1-1.62-1,0,0-.58.1-1.22.35,0,0-.19-.38-.62-.28-.43.1-.88.23-1.81.93-.93.7-1.58,1.26-1.94,1.58-.35.32.05.39.09.48.04.08-.05.7-.12,1.88-.06,1.17-.18,1.85-.18,1.85,0,0-2.28-.98-4.94-4.56-2.65-3.58-2.8-5.06-3.16-5.35-.37-.29-.96-.63-3.53-1.01-2.57-.37-5.99-.75-8.72-.77-2.73-.02-5.49.22-5.51.6-.02.39,1.35.95,1.35.95,0,0-1.8-.08-2.43-.02-.63.06-1.35.31-1.42.66-.07.35.68.63,1.08.73.39.09,1.46.51,1.75.66,0,0-1.83.03-3.12.18l-.53.07-.65.11s0,0,0,.01c-.87.2-1.6.49-1.6.88,0,.46.75.46,1.38.47h0c.41,0,.71.05.71.05h0c.67.1,1.68.32,2.58.64,0,0-1.59.2-2.54.33l-.3.06h0s0,0,0,0c-.26.07-.5.16-.6.2h0c-.69.29-1.29.71-1.26.91.03.23.44.44,1.13.5,0,0,0,0,0,0h.87c1.03-.02,2.29.07,3.1.52,0,0-.69.19-1.41.62-.71.44-.89.74-.83.94.06.2.41.3,1.14.19.73-.11,1.27-.15,1.86-.09.58.06.88.21,1.11.19,0,0-.12.19-.49.48-.37.29-.67.6-.24.69.42.09,1.65.21,2.48.06.83-.15,1.2-.26,1.2-.26,0,0-.99.97-.79,1.32.2.35.9.28,1.49.21.59-.07,1-.24,1-.24,0,0,.19.43.54.56.35.13,1.46.2,1.57.12,0,0,.21.62.58.76.37.14.87.3,1.28.07,0,0,.19.4.56.64.38.24.75.27.96.29,0,0,.18.52.42.69.24.17.73.32,1.02.3,0,0,.15.43.49.68.35.25.81.29.81.29,0,0,.11.33.31.59.2.26.93.53.93.53,0,0,.15.38.34.66s.9.61.9.61c0,0,0,.31.23.64l.54-.06c-.16-.17-.27-.35-.2-.51.16-.37.63-.43,1.15-.78.53-.35.81-.63.96-.8.15-.18-.01-.28-.17-.06-.16.22-1.41,1.19-2.05,1.19-.64,0-1.06-.42-.99-.73.07-.32,1.85-1.21,2.1-1.43s.08-.23-.11-.11c-.2.12-1.97,1.33-2.55,1.02-.58-.31-.94-.68-.87-.85.07-.17.73-.25,1.38-.61.65-.36,1.15-.69,1.26-.86.12-.17.07-.21-.1-.09-.17.12-2.27,1.46-2.89,1.15-.62-.31-.83-.48-.72-.69.11-.2.74-.29,1.22-.56.48-.27,1.42-.74,1.59-.89.16-.15.02-.21-.13-.12-.15.09-2.86,1.65-3.48,1.39-.62-.27-.84-.41-.74-.64.1-.23.82-.37,1.57-.76.75-.38,1.59-.83,1.73-.95.14-.12.03-.27-.16-.13-.19.14-2.92,1.61-3.62,1.44-.7-.17-1.21-.4-1.09-.56.12-.16.58-.26,1.32-.69.74-.43,1.83-.98,1.99-1.14.16-.16.07-.23-.11-.11-.18.12-3.5,1.94-4.14,1.76-.64-.18-1.16-.39-1.07-.62.1-.23,1.11-.51,1.79-.81.68-.3,1.83-.8,2.09-.93.25-.13.3-.24-.11-.11-.42.13-4.43,1.82-5.04,1.58-.61-.24-1-.27-.88-.51.13-.23,4.83-1.98,5.23-2.26.3-.22.22-.29-.07-.11-.29.18-2.17.95-3.88,1.51-1.71.56-3.5,1.06-3.55.76-.06-.31,1.14-1.07,2-1.51.86-.44,4.03-1.54,4.37-1.69.34-.15.3-.3-.04-.13-.34.17-5.23,1.91-7.17,2.13-1.93.22-2.62.15-1.14-.51,1.48-.66,3.14-1.12,4.76-1.61,1.65-.5,2.18-.7,2.5-.8.32-.1.2-.23-.08-.11-.28.12-3.51.8-5.05,1.15-1.55.36-2.36.57-2.74.48-.38-.08-1.75-.14-2.45-.03-.7.11-1.45.18-.68-.17.76-.36,2.92-1.18,4.16-1.38,1.24-.19,4.9-.95,5.35-1.05.45-.1.09-.25-.09-.2-.19.05-6.75,1.05-7.54,1.19,0,0-1.3-.44-2.38-.62-1.08-.18-2.93.15-2.95-.04-.02-.19.82-.54,1.83-.72,1-.19,9.31-1.07,10-1.14.69-.07.48-.22.04-.2-.44.03-4.36.33-5.01.41-.64.08-1.67-.09-2.17-.25-.5-.16-2.12-.68-2.63-.71-.51-.03-1.7.06-1.7-.16,0-.22,1.56-.57,2.22-.61.66-.05,2.38-.16,3.71-.15,1.33,0,4.27-.09,4.82-.08.55,0,.37-.12,0-.15-.37-.02-3.88-.07-4.46-.16-.57-.09-1.5-.66-2.19-.87-.69-.22-1.32-.38-1.34-.52-.01-.15.85-.23,1.81-.22.96.01,6.17.26,6.48.28.31.01.36-.09,0-.15-.36-.05-3.44-.19-4.2-.59-.76-.4-1.26-.5-1.22-.65.04-.15,1.1-.27,2.67-.26,1.57.01,3.58-.17,6.93.21,3.35.37,5.75.82,6.2,1.18.45.36.77.89,1.15,1.68.39.79,1.75,3.07,2.74,4.33.99,1.25,2.99,3.4,5.19,4.53,0,0-.04,2.24.12,2.83,0,0-.74-.31-.88-.68,0,0-.9.03-1.1-.8,0,0-.82-.22-.95-1.05,0,0-1.03-.14-1.31-1.13,0,0-1.13-.32-1.2-1.38,0,0-1.35-.46-1.28-1.43,0,0-1.53-.18-1.43-1.68,0,0-1.63-.29-1.38-1.1,0,0-1.36.49-1.7-1.02,0,0-1.81.07-1.52-1.51,0,0-1.35-.06-1.47-1.59,0,0-.84.97,1.05,1.99,0,0,.18,1.42,1.71,1.63,0,0,.75,1.14,1.67,1.19,0,0,.68.79,1.42.91,0,0,.24,1.31,1.32,1.59,0,0,.49,1.24,1.36,1.47,0,0,.46,1.08,1.23,1.26,0,0,.37.94,1.32,1.26,0,0,.31.77.91.89,0,0,.6.98,1.33.89,0,0,.29.58.98.67,0,0,.15.76.24,1.12.09.36-.11.99-.46.89-.35-.1-.6-.22-.51-1.11,0,0-.07-.14-.08.05-.01.19-.2.98-.71.62-.51-.37-.46-.8-.07-1.15.1-.08-.01-.13-.09-.05-.08.08-.78.67-1,.36-.22-.3.05-.55.24-.73.19-.18,0-.12-.08-.05-.08.07-.8.58-1.21.15-.41-.43.03-.88.35-1.1.32-.22.03-.15-.09-.05-.12.1-.98.7-1.34.26-.35-.44.35-.97.51-1.04.16-.07.07-.17-.07-.08-.14.09-.97.33-1.15-.07-.17-.4.07-.82.41-.99.34-.17-.03-.19-.09-.13-.05.07-.87.5-1.09.02s-.04-.68.15-.8c.18-.12.01-.19-.11-.11-.12.09-.73.28-.95,0-.22-.27.11-.74.26-.87.15-.13.04-.15-.09-.07-.14.09-.79.4-1.05-.03-.26-.43.02-.74.19-.85.17-.11.09-.19-.07-.08-.15.1-.85.38-1.18-.12-.33-.5.05-.89.24-1.03.19-.14.01-.19-.11-.09-.12.1-.81.36-1.16.07-.35-.29-.34-.51-.25-.64.09-.13.06-.14-.09-.05-.15.09-.56.17-.82-.04-.26-.21-.16-.47.26-.69.17-.09.13-.16-.07-.11-.2.05-1.17.32-1.47-.24-.31-.56-.08-.82.22-.89.3-.07.1-.14-.04-.11-.15.03-1.67.35-1.93-.21-.26-.57-.01-.92.41-1,.42-.08.14-.12-.02-.1-.16.01-1.55.22-1.52-.61.02-.83.31-.74.56-.77.25-.02.18-.13-.04-.14-.22,0-.9-.09-.89-.6.01-.5.21-.75.36-.85.15-.1.1-.14-.11-.08s-1.17.42-.23,1.71c0,0-.57,1.11.74,1.73,0,0,.11,1.42,1.72,1.55,0,0,.5,1.18,1.4,1.14,0,0,.4.92,1.13.87,0,0,.11.52,1.04.77,0,0,.05.93,1.12,1.05,0,0,.07.82.97,1.05,0,0-.18.76.89.89,0,0,0,.81.68.93,0,0-.18.92.72,1.14,0,0-.02,1.01.98,1.12,0,0,.04.99,1.12.9,0,0,.34.77,1.06.71,0,0,.43.98,1.33.73,0,0,.95.92,1.45-.05,0,0,.13.47.41,1.17l.75-.08c-.35-.75-.64-1.54-.8-2.27-.49-2.28-.61-4-.39-5.76.12-.93.16-3.04.13-3.27.06-.02.52-.47,1.54-1.16,1.15-.78,1.87-.98,1.95-.81.08.17-.43.47-.65.58-.23.11-.9.34-1.19.53-.29.19-1.02.74-1.29,1,0,0,.91-.55,1.15-.67,0,0,.6.68,1.27.29.67-.39.73-.75.71-1.19,0,0,.13-.04.11.23-.02.27-.06.47-.05.6,0,0-.58.43-.75.8-.17.37-.51.81-.17,1.6,0,0,.3-.32.54-.44l.55-.25s.47.99,1.47,2.15c1,1.16,1.77,1.81,1.99,1.94.22.13.83,0,1.51-.32.68-.33,4.33-2.68,6.08-5.16,1.74-2.48,2.97-5.13,3.68-7.24,0,0,.07-.61,1-.98.93-.37,5.15-2.48,8.03-3.6,2.88-1.12,6.76-2.37,7.36-2.4-.09.11-.36.61-1.54,1.2-1.19.59-4.36,1.92-6.17,2.47,0,0-.08.11.22.02.3-.09,4.73-1.48,7.32-2.38,2.59-.9,6.64-2.09,6.7-1.87s-1.04.72-1.67.99c-.63.27-1.23.58-1.93,1.22-.69.64-1.07.92-2.23,1.29-1.16.38-6.5,2.11-6.62,2.28.15-.03,5.94-1.7,8.27-2.35,2.34-.65,7.56-1.91,7.59-1.62s-1,.54-1.92,1.12-1.87,1.3-2.59,1.57c-.72.26-.95.45-2.97.83-2.02.39-7.85,1.64-7.99,1.78.12-.01,7.32-1.19,10.25-1.67,2.93-.47,7.6-1.15,7.67-.95.06.2-.78.49-1.73.89-.95.4-1.54.8-2.18,1.05-.64.25-1.63.6-3.36.78-1.73.18-10.55,1.15-10.76,1.2-.22.05-.17.1,0,.1.18,0,6.45-.52,9.28-.76,2.83-.24,7.84-.7,7.87-.48.04.22-.58.34-.89.4-.32.06-1.11.2-1.63.41s-1.1.73-2,.92c-.9.19-1.29.41-3.08.46-1.79.05-9.85.4-10.02.51.13,0,5.61.04,8.19,0,2.57-.03,5.36-.12,5.36.17,0,.28-.71.28-1.31.44-.59.16-.99.36-1.68.5-.7.14-.89.25-2.08.27-1.18.03-9.53.06-9.83.04s-.22.13,0,.13c.22,0,3.94.29,6.78.34,2.85.05,4.78.1,4.8.25.03.14-.52.41-1.06.68-.54.27.08.19-.54.27-.61.09-3.97.41-5.75.21s-4.86-.48-5.11-.5c-.25-.02-.23.08-.02.12.21.04,3.61.59,5.18.76,1.57.17,2.39.27,3.11.31.71.03,1.02.03,1.07.18.04.14-.22.36-.84.67-.62.31-1.18.5-2.21.41-1.03-.09-5.4-.56-6.8-.78.17.06,2.56.64,4.71.98,2.15.34,3.26.37,3.27.47,0,.1-.09.16-.44.35-.35.2-.62.59-1.29.6-.67,0-5.84-.57-6.5-.63-.24-.02-.23.07,0,.09.22.02,2.46.61,3.98.77,1.53.16,2.89.18,2.91.27.02.09-.19.36-.45.56-.26.2-.68.48-1.22.5-.55.02-5.7-.64-5.97-.67-.27-.03-.16.06-.02.09.14.03,5.54.96,5.77,1,.22.04.38.1.24.24-.13.15-.52.79-1.15.94-.64.15-.86.11-2.09-.2-1.23-.31-3.3-.75-3.51-.79s-.22.07-.02.12c.2.06,1.58.44,2.76.83,1.18.39,2.12.62,2.22.75.1.12.04.42-.15.63-.19.21-.32.52-1.06.33-.74-.2-3.82-1.2-4.02-1.32-.2-.11-.13.07-.03.11.09.04,1.52.82,2.38,1.16.86.35,1.69.61,1.93.64.24.04.14.27.04.4-.09.12-.41.51-.72.64l1.09-.13c.21-.28.43-.65.45-1.03,0,0,.85-.72.9-1.51,0,0,.96-.28,1.79-1.85,0,0,1.18-.6,1.49-1.65,0,0,1.46-.6,1.4-1.56,0,0,2.28-.99,2.18-1.74,0,0,2.86-1.26,2.86-1.85,0-.36-.48-.35-.48-.35,0,0,1.34-.31,1.74-.66,0,0,2.45-.45,2.41-.95-.05-.5-1.15-.49-1.15-.49,0,0,.84-.3,1.27-.71,0,0,.69-.32.93-.4.24-.08.47.02,1.13-.17.33-.09.67-.26.94-.46h0c.26-.2.34-.27.41-.4.07-.11.08-.13.02-.28-.09-.08-.27-.21-.52-.24-.87-.15-2.5-.09-2.88-.04,0,0,1.42-.68,2.53-1.2,0,0,0,0,0,0,.26-.13.74-.36,1.14-.54.63-.33.79-.52.72-.75"/>
  </g>
  <path class="cls-2" d="m189.42,19.28l.78-.69-1.04.1-.42-.96-.23,1.02-1.04.1.9.53-.22,1.02.78-.69.9.53-.42-.96Zm7.57-4.59l1.19-1.05-1.58.15-.63-1.46-.34,1.55-1.58.15,1.37.81-.34,1.55,1.19-1.06,1.37.81-.63-1.46Zm5.52-5.06l.78-.69-1.04.1-.42-.96-.23,1.02-1.04.1.9.53-.23,1.02.78-.69.9.53-.42-.96Zm5.22,9.04l.78-.69-1.04.1-.42-.96-.23,1.02-1.04.1.9.53-.23,1.02.78-.69.9.53-.42-.96Zm7.16-5.24l.78-.69-1.04.1-.42-.96-.23,1.02-1.04.1.9.53-.23,1.02.78-.69.9.53-.42-.96Z"/>
  <g>
    <path class="cls-2" d="m213.44,75.01c.27.31.42.74.45,1.3v.08h-3.23c.07-.58.26-1.04.56-1.36.3-.32.68-.48,1.12-.48s.83.15,1.1.46m1.47,4.07l-.67-.52c-.2.26-.44.47-.71.63-.27.16-.6.24-.99.24-.55,0-1-.2-1.36-.59-.36-.39-.54-.9-.56-1.54h4.37v-.46c0-1.03-.23-1.82-.7-2.37-.46-.55-1.12-.83-1.95-.83-.51,0-.99.14-1.43.43-.44.28-.78.68-1.02,1.18-.24.5-.37,1.07-.37,1.71v.2c0,.96.27,1.73.82,2.3.55.57,1.26.86,2.13.86,1.08,0,1.89-.41,2.43-1.25m-11.19-8.02h-1.1v9.15h1.1v-4.59c.15-.31.36-.56.63-.75.27-.19.58-.29.94-.29.44,0,.77.11.97.33.21.22.31.57.32,1.03v4.26h1.1v-4.26c-.01-1.54-.7-2.31-2.06-2.31-.78,0-1.42.3-1.91.9v-3.49Zm-6.73,7.77c-.31-.4-.46-.97-.46-1.72v-.21c0-.76.15-1.35.46-1.75.31-.4.74-.61,1.3-.61.42,0,.77.13,1.05.4.28.27.44.61.47,1.03h1.04c-.03-.69-.29-1.25-.77-1.68-.48-.43-1.08-.65-1.8-.65-.59,0-1.1.14-1.53.41-.43.27-.76.65-.99,1.14-.23.49-.35,1.05-.35,1.67v.19c0,1.02.26,1.82.78,2.4.52.59,1.22.88,2.09.88.44,0,.85-.1,1.24-.3.39-.2.7-.47.94-.8.23-.33.36-.69.38-1.05h-1.04c-.03.36-.19.65-.49.89-.29.24-.64.36-1.03.36-.57,0-1.01-.2-1.31-.6m-4.61.35c-.25.17-.59.25-1,.25-.45,0-.82-.11-1.09-.33-.28-.22-.42-.51-.44-.88h-1.1c0,.38.11.74.34,1.06.22.33.54.58.93.76.4.18.85.27,1.37.27.74,0,1.33-.17,1.79-.52.46-.35.69-.81.69-1.39,0-.34-.08-.64-.25-.88-.17-.24-.42-.45-.76-.62-.34-.17-.79-.32-1.34-.44-.55-.12-.93-.25-1.14-.39-.21-.13-.32-.34-.32-.6,0-.28.11-.51.34-.68.23-.18.54-.26.94-.26s.71.11.97.33c.26.22.38.48.38.78h1.11c0-.59-.23-1.07-.68-1.45-.45-.38-1.05-.57-1.78-.57s-1.27.18-1.71.55c-.45.36-.67.81-.67,1.34,0,.32.08.59.23.82s.4.43.73.6c.33.17.77.31,1.33.43.56.12.95.26,1.17.43.22.17.34.4.34.69,0,.28-.13.51-.38.68m-6.55-6.67c.11.12.27.18.49.18s.38-.06.49-.18c.11-.12.17-.27.17-.45s-.06-.33-.17-.45c-.11-.12-.27-.18-.49-.18s-.38.06-.49.18c-.11.12-.16.27-.16.45s.06.33.16.45m1.03,1.26h-1.1v6.45h1.1v-6.45Zm-7.19,1.44c.3-.42.72-.63,1.26-.63.68,0,1.18.31,1.52.92v2.94c-.33.63-.84.95-1.53.95-.54,0-.95-.21-1.25-.62-.3-.42-.45-.99-.45-1.71,0-.82.15-1.44.45-1.85m-.86,4.21c.47.61,1.08.91,1.83.91s1.36-.25,1.8-.76v.55c0,.55-.15.97-.45,1.28-.3.3-.72.45-1.25.45-.68,0-1.26-.29-1.73-.87l-.57.66c.23.34.57.62,1.02.82.44.2.9.3,1.36.3.83,0,1.5-.24,1.99-.72.49-.48.74-1.14.74-1.97v-6.29h-1.01l-.05.72c-.44-.56-1.05-.83-1.84-.83s-1.38.3-1.85.89c-.47.59-.7,1.39-.7,2.4s.23,1.88.7,2.48m-1.88-5.69c-.11-.06-.27-.08-.49-.08-.66,0-1.18.29-1.54.86l-.02-.74h-1.07v6.45h1.1v-4.57c.26-.62.75-.92,1.47-.92.2,0,.38.01.54.04v-1.02Zm-6.32,6.48h1.05v-6.45h-1.1v4.69c-.28.63-.84.94-1.68.94-.79,0-1.19-.49-1.19-1.46v-4.16h-1.1v4.19c0,.78.19,1.37.55,1.77.36.4.88.6,1.57.6.83,0,1.46-.25,1.89-.76l.02.64Zm-7.43-1.43c-.29.41-.71.61-1.23.61-.72,0-1.24-.34-1.58-1.01v-2.79c.32-.68.84-1.01,1.57-1.01.54,0,.96.2,1.25.61s.44.99.44,1.74c0,.82-.15,1.44-.44,1.85m1.54-1.82c0-1.03-.22-1.84-.67-2.43-.45-.59-1.06-.89-1.84-.89s-1.4.28-1.84.83v-3.41h-1.1v9.15h1.01l.05-.74c.45.58,1.07.86,1.89.86.76,0,1.37-.3,1.82-.9.45-.6.68-1.39.68-2.37v-.1Zm-12.66-3.2v6.45h1.1v-4.59c.15-.31.36-.56.63-.75.27-.19.58-.29.94-.29.44,0,.76.11.97.33.21.22.32.57.32,1.03v4.26h1.1v-4.26c-.01-1.54-.7-2.31-2.06-2.31-.79,0-1.44.31-1.93.93l-.04-.81h-1.04Zm-3.37,1.25c.27.31.42.74.45,1.3v.08h-3.23c.07-.58.26-1.04.56-1.36.3-.32.68-.48,1.12-.48s.83.15,1.1.46m1.47,4.07l-.67-.52c-.2.26-.44.47-.71.63-.27.16-.6.24-.99.24-.55,0-1-.2-1.36-.59-.35-.39-.54-.9-.56-1.54h4.37v-.46c0-1.03-.23-1.82-.7-2.37-.46-.55-1.12-.83-1.95-.83-.51,0-.99.14-1.43.43-.44.28-.78.68-1.02,1.18-.24.5-.37,1.07-.37,1.71v.2c0,.96.27,1.73.82,2.3.55.57,1.26.86,2.13.86,1.08,0,1.89-.41,2.43-1.25m-11.16-3.88c.3-.42.72-.63,1.26-.63.68,0,1.19.3,1.52.91v2.96c-.32.63-.83.94-1.53.94-.53,0-.95-.21-1.25-.62-.3-.41-.45-.98-.45-1.71,0-.82.15-1.44.45-1.85m-1.55,1.81c0,.98.23,1.78.71,2.39s1.08.92,1.83.92c.79,0,1.4-.27,1.84-.81l.05.69h1.01v-9.15h-1.1v3.36c-.44-.52-1.04-.77-1.79-.77s-1.37.3-1.84.9c-.47.6-.7,1.4-.7,2.39v.08Zm-6.92-3.25v6.45h1.1v-4.59c.15-.31.36-.56.63-.75.27-.19.58-.29.94-.29.44,0,.76.11.97.33.21.22.32.57.32,1.03v4.26h1.1v-4.26c-.01-1.54-.7-2.31-2.06-2.31-.79,0-1.44.31-1.93.93l-.04-.81h-1.04Zm-5.82,5.31c-.23-.2-.35-.47-.35-.81,0-.79.68-1.19,2.03-1.19h.86v1.32c-.14.29-.36.52-.67.7-.31.18-.64.27-.98.27s-.66-.1-.89-.29m3.87,1.13v-.09c-.15-.35-.23-.82-.23-1.41v-2.97c-.02-.65-.23-1.16-.66-1.53-.42-.37-1-.56-1.75-.56-.47,0-.9.09-1.29.26-.39.18-.7.41-.93.71-.23.3-.34.61-.34.93h1.11c0-.28.13-.52.4-.72.27-.2.6-.3.99-.3.45,0,.79.11,1.02.34.23.23.35.53.35.92v.51h-1.07c-.93,0-1.64.19-2.15.56s-.77.89-.77,1.56c0,.55.2,1.01.61,1.37.41.36.93.54,1.56.54.71,0,1.32-.27,1.83-.8.04.33.09.55.16.68h1.15Zm-6.62-6.48c-.11-.06-.27-.08-.49-.08-.66,0-1.18.29-1.54.86l-.02-.74h-1.07v6.45h1.1v-4.57c.26-.62.75-.92,1.47-.92.2,0,.38.01.54.04v-1.02Zm-9.89-1.26h1.69c.57,0,.99.11,1.27.33.28.22.42.56.42,1.04,0,.43-.15.77-.45,1.02-.3.25-.7.38-1.2.38h-1.73v-2.76Zm1.91,3.68c1.14,0,1.7.52,1.7,1.57,0,.48-.15.86-.46,1.14-.31.28-.73.41-1.26.41h-1.89v-3.12h1.91Zm-.04,4.06c.92,0,1.63-.22,2.14-.67.5-.45.76-1.06.76-1.83,0-.51-.14-.95-.41-1.31s-.64-.62-1.11-.75c.4-.17.71-.41.94-.72.23-.31.35-.67.35-1.08,0-.76-.24-1.34-.71-1.73-.47-.39-1.18-.58-2.12-.58h-2.84v8.67h3.01Zm-5.08-4.13h-2.91v.9h2.91v-.9Zm-9.83-2.31v6.45h1.1v-4.59c.15-.31.36-.56.63-.75.27-.19.58-.29.94-.29.44,0,.76.11.97.33.21.22.32.57.32,1.03v4.26h1.1v-4.26c-.01-1.54-.7-2.31-2.06-2.31-.79,0-1.44.31-1.93.93l-.04-.81h-1.04Zm-3.23-1.26c.11.12.27.18.48.18s.38-.06.49-.18c.11-.12.17-.27.17-.45s-.06-.33-.17-.45c-.11-.12-.27-.18-.49-.18s-.38.06-.48.18c-.11.12-.16.27-.16.45s.06.33.16.45m1.03,1.26h-1.1v6.45h1.1v-6.45Zm-3.35-2.7h-1.1v9.15h1.1v-9.15Zm-2.67,2.67c-.11-.06-.27-.08-.49-.08-.66,0-1.17.29-1.54.86l-.02-.74h-1.07v6.45h1.1v-4.57c.26-.62.75-.92,1.47-.92.19,0,.37.01.54.04v-1.02Zm-6.48,1.28c.27.31.42.74.45,1.3v.08h-3.23c.07-.58.26-1.04.56-1.36.3-.32.68-.48,1.12-.48s.83.15,1.1.46m1.47,4.07l-.67-.52c-.2.26-.44.47-.71.63-.27.16-.6.24-.99.24-.55,0-1-.2-1.36-.59-.36-.39-.54-.9-.56-1.54h4.37v-.46c0-1.03-.23-1.82-.7-2.37-.46-.55-1.12-.83-1.95-.83-.51,0-.99.14-1.43.43-.44.28-.78.68-1.02,1.18-.24.5-.37,1.07-.37,1.71v.2c0,.96.27,1.73.82,2.3.55.57,1.26.86,2.13.86,1.08,0,1.89-.41,2.43-1.25m-11.87-6.61h1.69c.57,0,.99.11,1.27.33.28.22.42.56.42,1.04,0,.43-.15.77-.45,1.02-.3.25-.7.38-1.2.38h-1.73v-2.76Zm1.91,3.68c1.14,0,1.7.52,1.7,1.57,0,.48-.15.86-.46,1.14-.31.28-.73.41-1.26.41h-1.89v-3.12h1.91Zm-.04,4.06c.92,0,1.63-.22,2.14-.67.5-.45.76-1.06.76-1.83,0-.51-.14-.95-.41-1.31-.27-.37-.64-.62-1.11-.75.4-.17.71-.41.94-.72.23-.31.34-.67.34-1.08,0-.76-.24-1.34-.71-1.73-.47-.39-1.18-.58-2.12-.58h-2.84v8.67h3.01Z"/>
    <path class="cls-2" d="m214.99,85.96h-2.08v5.4l-3.07-5.4h-2.09v8.67h2.09v-5.4l3.07,5.4h2.08v-8.67Zm-9.6,3.44h-3.29v-1.83h3.9v-1.61h-5.99v8.67h5.98v-1.61h-3.88v-2.07h3.29v-1.55Zm-6.89-3.44h-7.25v1.61h2.56v7.06h2.09v-7.06h2.6v-1.61Zm-8.88,3.61h-3.37v-2h3.71v-1.61h-5.8v8.67h2.09v-3.45h3.37v-1.61Zm-11.04-1.18l.94,3.01h-1.86l.93-3.01Zm1.94,6.24h2.25l-3.2-8.67h-1.97l-3.18,8.67h2.23l.5-1.62h2.87l.51,1.62Zm-7.5-8.67h-2.08v3.44h-3.08v-3.44h-2.09v8.67h2.09v-3.62h3.08v3.62h2.08v-8.67Zm-11.07,5.74c-.02.49-.15.85-.41,1.08-.25.23-.62.34-1.1.34-.57,0-.97-.2-1.2-.6s-.35-1.06-.35-1.98v-.61c.01-.85.14-1.47.38-1.86.24-.39.62-.58,1.14-.58s.89.11,1.14.34c.25.23.38.61.4,1.14h2.08c-.09-.97-.45-1.74-1.09-2.29-.64-.55-1.48-.83-2.54-.83-.73,0-1.37.17-1.93.52-.56.35-.98.84-1.28,1.48-.3.64-.44,1.38-.44,2.23v.43c0,1.35.33,2.4.98,3.15.66.74,1.55,1.11,2.69,1.11.69,0,1.31-.13,1.84-.38.54-.25.96-.61,1.25-1.07.3-.46.46-1,.49-1.6h-2.08Zm-9.06,1.26c-.2.15-.47.22-.82.22-.54,0-.93-.11-1.17-.33s-.36-.56-.36-1.03h-2.1c0,.57.14,1.08.43,1.52.29.44.72.78,1.29,1.04s1.21.38,1.91.38c1,0,1.78-.22,2.35-.65.57-.43.86-1.03.86-1.79,0-.95-.47-1.69-1.41-2.23-.38-.22-.88-.43-1.48-.62-.6-.19-1.02-.38-1.26-.56-.24-.18-.36-.38-.36-.6,0-.25.11-.46.33-.63.22-.17.51-.25.88-.25s.66.1.88.29c.22.2.32.47.32.82h2.08c0-.53-.14-1-.41-1.41-.27-.41-.66-.73-1.15-.95-.49-.22-1.05-.33-1.68-.33s-1.22.1-1.73.31c-.51.2-.91.49-1.19.86-.28.37-.42.79-.42,1.27,0,.96.56,1.72,1.68,2.27.35.17.79.35,1.33.53.54.18.92.36,1.14.53.22.17.33.41.33.71,0,.27-.1.48-.3.63m-6.18-7h-2.08v5.4l-3.07-5.4h-2.09v8.67h2.09v-5.4l3.07,5.4h2.08v-8.67Zm-9.6,3.44h-3.29v-1.83h3.9v-1.61h-5.99v8.67h5.98v-1.61h-3.88v-2.07h3.29v-1.55Zm-9.6,3.55c-.2.15-.47.22-.82.22-.54,0-.93-.11-1.17-.33s-.36-.56-.36-1.03h-2.1c0,.57.14,1.08.43,1.52.29.44.72.78,1.29,1.04s1.21.38,1.91.38c1,0,1.78-.22,2.35-.65.57-.43.86-1.03.86-1.79,0-.95-.47-1.69-1.41-2.23-.39-.22-.88-.43-1.48-.62-.6-.19-1.02-.38-1.26-.56-.24-.18-.36-.38-.36-.6,0-.25.11-.46.32-.63.22-.17.51-.25.88-.25s.66.1.88.29c.22.2.33.47.33.82h2.08c0-.53-.14-1-.41-1.41-.27-.41-.66-.73-1.15-.95-.49-.22-1.05-.33-1.68-.33s-1.22.1-1.73.31c-.51.2-.91.49-1.19.86-.28.37-.42.79-.42,1.27,0,.96.56,1.72,1.69,2.27.34.17.79.35,1.33.53.54.18.92.36,1.14.53.22.17.32.41.32.71,0,.27-.1.48-.3.63m-8.31,0c-.2.15-.47.22-.82.22-.54,0-.93-.11-1.17-.33-.24-.22-.36-.56-.36-1.03h-2.1c0,.57.14,1.08.43,1.52.29.44.72.78,1.29,1.04s1.21.38,1.91.38c1,0,1.78-.22,2.35-.65.57-.43.86-1.03.86-1.79,0-.95-.47-1.69-1.41-2.23-.39-.22-.88-.43-1.48-.62-.6-.19-1.02-.38-1.26-.56-.24-.18-.36-.38-.36-.6,0-.25.11-.46.33-.63.22-.17.51-.25.88-.25s.66.1.88.29c.22.2.32.47.32.82h2.08c0-.53-.14-1-.41-1.41-.27-.41-.66-.73-1.15-.95-.49-.22-1.05-.33-1.68-.33s-1.22.1-1.73.31c-.51.2-.91.49-1.19.86-.28.37-.42.79-.42,1.27,0,.96.56,1.72,1.68,2.27.35.17.79.35,1.33.53.54.18.92.36,1.14.53.22.17.33.41.33.71,0,.27-.1.48-.3.63m-6.26-7h-2.08v8.67h2.08v-8.67Zm-7.91,0h-1.78l-1.19,5.44-1-5.44h-2.08l1.85,8.67h2.16l1.14-4.94,1.16,4.94h2.17l1.84-8.67h-2.07l-1,5.44-1.21-5.44Zm-15.64,1.61h1.32c.39,0,.69.11.89.32.2.21.3.51.3.88s-.1.67-.3.87c-.2.21-.5.31-.9.31h-1.32v-2.39Zm2.66,7.06h2.24v-.09l-1.81-3.5c.52-.25.9-.57,1.15-.96.24-.4.37-.9.37-1.5,0-.83-.29-1.48-.87-1.93-.58-.46-1.38-.68-2.41-.68h-3.41v8.67h2.09v-3.07h1.13l1.53,3.07Zm-7.11-5.23h-3.29v-1.83h3.9v-1.61h-5.99v8.67h5.98v-1.61h-3.88v-2.07h3.29v-1.55Zm-11.17-1.83c.62,0,1.08.21,1.41.64.32.43.48,1.06.48,1.89v.38c0,.84-.16,1.48-.48,1.9-.32.43-.78.64-1.38.64h-.73v-5.45h.7Zm.06,7.06c.75,0,1.43-.18,2.04-.54.61-.36,1.08-.85,1.42-1.48.34-.63.5-1.34.5-2.13v-.4c0-.79-.18-1.5-.52-2.13-.34-.63-.82-1.12-1.43-1.47-.61-.35-1.3-.52-2.07-.52h-2.79v8.67h2.85Zm-8.56-5.23h-3.29v-1.83h3.9v-1.61h-5.99v8.67h5.97v-1.61h-3.88v-2.07h3.29v-1.55Zm-7.56-3.44h-2.08v8.67h2.08v-8.67Zm-13.64,0v8.67h2.09v-2.03l-.2-4.15,2.1,6.18h1.38l2.1-6.17-.2,4.15v2.03h2.1v-8.67h-2.75l-1.93,6.03-1.94-6.03h-2.75Zm-2.36,3.44h-3.29v-1.83h3.9v-1.61h-5.99v8.67h5.97v-1.61h-3.88v-2.07h3.29v-1.55Zm-11.17-1.83c.61,0,1.08.21,1.41.64.32.43.48,1.06.48,1.89v.38c0,.84-.16,1.48-.48,1.9-.32.43-.78.64-1.38.64h-.73v-5.45h.7Zm.06,7.06c.75,0,1.43-.18,2.04-.54.61-.36,1.08-.85,1.42-1.48.34-.63.5-1.34.5-2.13v-.4c0-.79-.18-1.5-.52-2.13-.34-.63-.82-1.12-1.43-1.47-.61-.35-1.3-.52-2.07-.52h-2.79v8.67h2.85Zm-8.43-6.24l.94,3.01h-1.86l.93-3.01Zm1.94,6.24h2.25l-3.2-8.67h-1.97l-3.18,8.67h2.23l.5-1.62h2.87l.51,1.62Zm-9.57,0h2.48l-2.93-4.84,2.93-3.84h-2.59l-1.87,2.72-.73,1.1v-3.82h-2.09v8.67h2.09v-2.29l.86-.94,1.85,3.23Zm-10.37-6.24l.94,3.01h-1.86l.93-3.01Zm1.94,6.24h2.25l-3.2-8.67h-1.97l-3.18,8.67h2.23l.5-1.62h2.87l.51,1.62Z"/>
  </g>
</svg>
