<?xml version="1.0" encoding="UTF-8" standalone="no"?>
<!-- Created with Inkscape (http://www.inkscape.org/) -->

<svg
   xmlns:dc="http://purl.org/dc/elements/1.1/"
   xmlns:cc="http://creativecommons.org/ns#"
   xmlns:rdf="http://www.w3.org/1999/02/22-rdf-syntax-ns#"
   xmlns:svg="http://www.w3.org/2000/svg"
   xmlns="http://www.w3.org/2000/svg"
   xmlns:sodipodi="http://sodipodi.sourceforge.net/DTD/sodipodi-0.dtd"
   xmlns:inkscape="http://www.inkscape.org/namespaces/inkscape"
   version="1.1"
   width="180.08495"
   height="56.48719"
   id="svg3811"
   inkscape:version="0.48.2 r9819"
   sodipodi:docname="dta.svg">
  <sodipodi:namedview
     pagecolor="#ffffff"
     bordercolor="#666666"
     borderopacity="1"
     objecttolerance="10"
     gridtolerance="10"
     guidetolerance="10"
     inkscape:pageopacity="0"
     inkscape:pageshadow="2"
     inkscape:window-width="997"
     inkscape:window-height="815"
     id="namedview2995"
     showgrid="false"
     fit-margin-top="0"
     fit-margin-left="0"
     fit-margin-right="0"
     fit-margin-bottom="0"
     inkscape:zoom="0.22805837"
     inkscape:cx="108.00225"
     inkscape:cy="251.56754"
     inkscape:window-x="0"
     inkscape:window-y="25"
     inkscape:window-maximized="0"
     inkscape:current-layer="svg3811" />
  <defs
     id="defs3813" />
  <metadata
     id="metadata3816">
    <rdf:RDF>
      <cc:Work
         rdf:about="">
        <dc:format>image/svg+xml</dc:format>
        <dc:type
           rdf:resource="http://purl.org/dc/dcmitype/StillImage" />
        <dc:title />
      </cc:Work>
    </rdf:RDF>
  </metadata>
  <g
     id="layer1"
     transform="translate(-272.81468,-721.26144)">
    <path
       d="m 274.4117,777.28125 c -0.56901,-0.27875 -1.06305,-0.74029 -1.33919,-1.2511 l -0.20723,-0.38333 -0.0253,-26.18696 -0.0253,-26.18695 0.23238,-0.4547 c 0.26011,-0.50895 0.67448,-0.93242 1.2778,-1.30585 l 0.40539,-0.25092 27.12654,0 27.12654,0 0.38383,0.19581 c 0.53376,0.2723 1.11696,0.82072 1.36443,1.28306 l 0.20869,0.38987 0,26.25832 0,26.25832 -0.20869,0.38987 c -0.24747,0.46234 -0.83067,1.01076 -1.36443,1.28306 l -0.38383,0.19582 -27.05276,-0.003 -27.05276,-0.003 -0.46608,-0.22832 z m 31.94731,-3.60104 c 4.36976,-0.30178 8.94552,-1.09356 12.79374,-2.21382 2.56128,-0.74562 6.71758,-2.20984 7.45959,-2.62795 0.57476,-0.32385 1.51679,-1.18631 1.80893,-1.65612 l 0.21898,-0.35216 0.0263,-22.16145 0.0263,-22.16144 -26.69192,0 -26.69193,0 0.01,19.81353 c 0.005,10.89744 0.0378,21.04602 0.0719,22.55239 l 0.0619,2.73887 0.26224,0.34366 c 0.36396,0.47695 1.30802,0.90265 3.90226,1.75961 4.73803,1.56514 9.50309,2.71241 14.23549,3.42746 3.50744,0.52997 9.12112,0.7712 12.50624,0.53742 z"
       id="path3862"
       style="fill:#d1c5a4;fill-opacity:1"
       inkscape:connector-curvature="0" />
    <path
       d="m 289.83542,747.45123 0,-14.6625 5.77395,7.9e-4 c 6.71907,9.2e-4 7.7024,0.0759 9.65521,0.73577 3.02257,1.02142 5.5007,2.78749 7.29509,5.19892 1.95907,2.63273 2.89079,5.47068 2.88086,8.77493 -0.009,2.97756 -0.75709,5.47202 -2.37126,7.90625 -2.1742,3.27876 -5.5706,5.56436 -9.45922,6.36559 -1.33709,0.2755 -2.9141,0.33968 -8.38401,0.34122 l -5.39062,0.002 0,-14.66249 z m 11.88333,7.95964 c 2.24193,-0.55805 4.08554,-1.97923 5.06408,-3.90375 0.34619,-0.68087 0.67642,-1.99899 0.76465,-3.05216 0.38361,-4.57917 -1.69599,-7.85845 -5.68498,-8.96454 -0.63464,-0.17597 -1.09262,-0.22018 -2.65938,-0.25672 l -1.8927,-0.0441 0,8.26422 0,8.26423 1.79687,-0.0522 c 1.37333,-0.0399 1.98888,-0.1 2.61146,-0.25496 z"
       id="path3919"
       style="fill:#72685b;fill-opacity:1"
       inkscape:connector-curvature="0" />
    <path
       d="m 409.73103,762.03872 c 0.0176,-0.0525 2.42538,-6.32626 5.35069,-13.94164 l 5.31875,-13.84614 3.94287,-0.002 c 3.66701,-0.002 3.94752,0.01 4.00939,0.16561 0.25354,0.63919 10.33808,27.41929 10.37523,27.55207 0.0441,0.1577 -0.18108,0.16771 -3.77508,0.16771 l -3.82202,0 -0.17821,-0.50313 c -0.098,-0.27672 -0.50198,-1.37678 -0.89768,-2.44458 l -0.71947,-1.94146 -5.07933,0.0248 -5.07933,0.0248 -0.95518,2.41979 -0.95518,2.41979 -3.7837,0 c -2.47128,0 -3.77262,-0.0331 -3.75175,-0.0955 z m 17.61759,-10.32636 c 7.7e-4,-0.22695 -3.01267,-8.93203 -3.07019,-8.86901 -0.0642,0.0704 -3.06338,8.77345 -3.06338,8.8894 0,0.0283 1.38,0.0515 3.06666,0.0515 1.68667,0 3.06678,-0.0323 3.06691,-0.0719 l 0,0 z"
       id="path3925"
       style="fill:#72685b;fill-opacity:1"
       inkscape:connector-curvature="0" />
    <path
       d="m 361.73845,762.20623 c -2.02927,-0.0279 -3.70056,-0.0603 -3.71399,-0.0719 -0.0134,-0.0116 0.005,-5.10985 0.0398,-11.32943 l 0.0642,-11.30833 -3.14486,0 -3.14486,0 0.0523,-2.96371 c 0.0288,-1.63003 0.0809,-3.01003 0.11594,-3.06666 0.0698,-0.11288 10.36926,-0.12411 16.58356,-0.0181 l 3.45,0.0589 0.0253,3.04271 0.0253,3.0427 -3.15346,0 -3.15345,0 -0.052,0.21563 c -0.0286,0.11859 -0.0821,4.20468 -0.11887,9.0802 -0.0368,4.87552 -0.0935,9.87802 -0.12607,11.11666 l -0.0592,2.25208 -3.68959,-0.0508 z"
       id="path3866"
       style="fill:#72685b;fill-opacity:1"
       inkscape:connector-curvature="0" />
    <path
       d="m 335.41218,777.46795 c -0.56367,-0.17354 -1.30222,-0.83178 -1.6498,-1.47039 l -0.26641,-0.48948 0.0308,-26.08972 c 0.0285,-24.22758 0.0423,-26.11522 0.19236,-26.44697 0.23018,-0.50883 0.64605,-1.00613 1.03566,-1.23845 0.81864,-0.48814 -0.72916,-0.46256 28.05837,-0.46367 l 26.86047,-10e-4 0.47278,0.23957 c 0.53584,0.27153 1.06707,0.76611 1.31407,1.2234 0.26259,0.48615 0.29367,3.47616 0.30491,29.32665 l 0.0102,23.45838 -0.22966,0.45203 c -0.302,0.5944 -0.8216,1.1175 -1.40232,1.41177 l -0.46998,0.23816 -26.90838,-0.007 c -23.03474,-0.006 -26.97239,-0.0264 -27.35302,-0.14357 z m 31.92587,-3.78229 c 4.98623,-0.25982 9.81595,-1.24774 15.86041,-3.24427 2.79557,-0.92339 3.6418,-1.2546 4.32952,-1.69453 0.65763,-0.42068 1.43416,-1.14012 1.64447,-1.52356 0.14705,-0.26811 0.16138,-2.00004 0.18584,-22.45196 l 0.0265,-22.16145 -26.70146,0 -26.70145,0 0.0333,22.3052 0.0333,22.30519 0.219,0.44451 c 0.12367,0.25103 0.37691,0.55395 0.58179,0.69593 1.35093,0.9362 9.03035,3.22435 14.18785,4.2274 2.39158,0.46512 5.27122,0.8523 8.10718,1.09005 1.38878,0.11643 6.0217,0.12066 8.19374,0.007 l 0,0 z"
       id="path3868"
       style="fill:#d1c5a4;fill-opacity:1"
       inkscape:connector-curvature="0" />
    <path
       d="m 396.73741,777.66277 c -0.74918,-0.12315 -1.36745,-0.65463 -1.83508,-1.57746 l -0.24719,-0.4878 0.0448,-26.11623 c 0.0416,-24.25241 0.0564,-26.13837 0.20637,-26.4264 0.24193,-0.46457 0.72882,-0.98413 1.20691,-1.28789 l 0.42605,-0.27069 27.2527,0 27.2527,0 0.41814,0.24504 c 0.50346,0.29505 1.0353,0.86513 1.26693,1.35803 0.16133,0.3433 0.16989,1.6794 0.16989,26.52399 l 0,26.16249 -0.21105,0.39449 c -0.32236,0.60257 -0.67746,0.97858 -1.21575,1.28732 l -0.48987,0.28097 -26.92915,-0.0111 c -14.81103,-0.006 -27.10343,-0.0397 -27.31645,-0.0748 z m 31.43728,-3.74586 c 6.14185,-0.436 10.56842,-1.36327 17.01041,-3.56331 3.30181,-1.12762 4.30423,-1.68308 5.08479,-2.81759 l 0.28187,-0.40969 0,-22.1921 0,-22.19209 -26.70516,0 -26.70516,0 0.0697,22.20936 c 0.0383,12.21515 0.10479,22.39558 0.14767,22.62318 0.17944,0.95239 1.07047,1.40533 5.46798,2.77954 6.00904,1.87782 12.0718,3.09911 17.20207,3.46523 0.79063,0.0564 1.61,0.11579 1.82084,0.13193 0.96543,0.0739 5.11729,0.0513 6.32499,-0.0345 z"
       id="path3872"
       style="fill:#d1c5a4;fill-opacity:1"
       inkscape:connector-curvature="0" />
  </g>
</svg>
